PathFileType	4	(X/Y/Z)	C:/Users/beibeiliu/ov580/test_trc/User2\sequence.13_training_dense_right.trc
DataRate	CameraRate	NumFrames	NumMarkers	Units	OrigDataRate	OrigDataStartFrame	OrigNumFrames
120	120	10	19	mm	120	211	336
Frame#	Time	ThumbCMC			ThumbMCP			ThumbIP			ThumbTip			IndexMCP			IndexPIP			IndexTip			MiddleMCP			MiddlePIP			MiddleTip			RingMCP			RingPIP			RingTip			PinkyMCP			PinkyPIP			PinkyTip			BackHand1			BackHand2			BackHand3	
		X0	Y0	Z0	X1	Y1	Z1	X2	Y2	Z2	X3	Y3	Z3	X4	Y4	Z4	X5	Y5	Z5	X6	Y6	Z6	X7	Y7	Z7	X8	Y8	Z8	X9	Y9	Z9	X10	Y10	Z10	X11	Y11	Z11	X12	Y12	Z12	X13	Y13	Z13	X14	Y14	Z14	X15	Y15	Z15	X16	Y16	Z16	X17	Y17	Z17	X18	Y18	Z18	
210	1.75	47.2979	-23.4255	108.815	22.6889	-39.1799	83.5915	7.98569	-52.626	54.8781	9.73365	-62.7429	33.0138	40.8232	20.0211	37.3417	30.1109	22.3136	9.37208	12.2897	-1.04046	-13.9236	70.2002	15.631	16.6341	57.1954	11.979	-15.5801	44.1146	-15.9081	-34.2127	80.0063	-12.7135	13.0726	61.8349	-38.1637	-0.64722	55.7315	-56.1028	29.2946	97.1866	-32.8713	20.5082	75.2276	-58.4825	14.1223	71.0046	-62.9575	45.1737	101.451	-5.47135	69.6986	115.109	-8.32054	102.526	77.9947	4.97691	96.2799	
211	1.75833	41.3132	-17.453	106.328	17.1459	-33.7019	85.3833	1.92272	-45.1874	53.2098	6.60373	-54.7425	25.1775	42.3228	28.1081	34.7983	29.9861	30.7069	6.84743	14.4878	5.64058	-14.6655	70.9677	22.6487	20.4172	62.9385	19.3388	-14.8786	46.5543	-7.19546	-36.2246	78.0733	-6.43582	9.2334	65.4163	-32.6514	-4.25304	59.1563	-50.7496	26.6155	96.2818	-28.7651	16.3672	76.0165	-50.5134	10.9968	71.4095	-57.5506	45.8941	101.758	0.630372	67.126	115.551	-8.17988	100.473	79.1174	10.4447	92.9558	
212	1.76667	40.0148	-12.6943	101.735	21.5017	-29.3068	80.2336	1.97137	-40.9	49.6414	8.42421	-50.3156	20.615	46.2361	31.8582	32.7452	35.6674	34.0428	4.85145	20.5321	8.99813	-18.0883	76.6221	25.8732	14.6642	67.4911	22.6405	-16.7829	53.7482	-5.19463	-39.3349	85.783	-7.38874	5.12364	66.7019	-31.021	-4.49576	59.3027	-47.8692	26.4214	98.4801	-29.4912	14.6619	75.7739	-52.8012	14.1933	72.9547	-52.9927	47.2662	104.772	3.13717	68.0238	111.571	-3.5163	98.883	77.5852	13.3794	92.8228	
213	1.775	42.272	-11.9363	99.5963	19.2182	-27.1992	72.6074	6.44579	-40.8247	42.839	14.585	-50.0234	15.1307	50.9757	28.4466	30.5933	41.8401	32.0824	-1.29744	28.109	5.80762	-24.2974	81.2223	21.9578	15.1217	76.261	17.5065	-22.617	62.4869	-14.8307	-44.3293	86.5868	-9.24429	5.21664	73.6282	-34.7124	-5.05779	60.3113	-48.6916	29.1789	102.294	-32.0896	17.5581	80.4248	-57.4753	18.108	72.151	-51.0385	47.1648	108.246	2.29426	69.4963	114.77	-3.31278	102.045	78.1766	13.9285	94.1521	
214	1.78333	41.5314	-11.638	96.8936	24.4676	-28.9136	72.2033	9.39474	-43.7194	38.7196	15.319	-56.4368	15.2282	56.0454	24.5903	22.4387	51.3813	24.9106	-9.07299	38.2547	0.134203	-30.5336	85.139	16.5295	9.15339	87.1247	7.88438	-25.1252	70.3605	-20.9327	-47.1847	92.202	-17.7921	3.81709	77.6399	-46.3313	-3.30576	66.0487	-56.2976	28.8165	107.518	-40.8794	18.5183	81.375	-62.2877	23.5597	74.8961	-52.9646	52.8203	111.724	0.134734	63.1725	117.559	-1.32512	97.9314	81.3523	11.761	88.4021	
215	1.79167	43.7886	-12.2119	90.9689	25.3521	-31.1385	65.6459	13.9215	-48.062	39.3568	18.5481	-62.8373	14.3442	64.0115	16.7015	14.1437	57.7157	15.3093	-17.7412	48.4165	-10.2278	-36.9071	90.2166	8.00343	2.6583	92.7488	-3.76385	-29.1535	80.5049	-37.7381	-47.8776	100.659	-30.6199	4.802	80.7484	-56.966	0.537156	68.6835	-61.5834	30.8216	109.481	-48.4827	20.2395	87.6828	-72.1753	28.1754	77.121	-60.7453	56.055	112.479	-3.31202	64.0558	116.023	-2.07251	97.4089	80.3034	13.3152	81.8846	
216	1.8	43.9829	-12.4102	88.8013	27.894	-33.8167	66.9	17.6995	-53.8058	38.1885	21.2586	-69.8179	15.5112	66.7293	7.21981	10.9578	64.0239	1.86178	-20.9617	56.839	-25.3883	-40.5551	94.7235	-3.7356	3.57719	97.0696	-23.0335	-32.575	81.5491	-51.9518	-45.4948	101.656	-40.8021	4.30605	87.6936	-67.7831	3.68591	71.5485	-66.9159	38.9394	112.612	-57.911	25.0213	87.035	-76.4167	34.7792	82.7935	-61.9462	64.7035	114.704	-7.12962	59.3381	120.369	-3.92769	92.9444	85.5356	7.40954	80.5881	
217	1.80833	48.5968	-13.1708	88.5592	26.6444	-34.4884	69.6138	14.4361	-57.7739	41.7637	21.3247	-76.5485	25.5716	68.8712	-1.58594	7.68469	65.0767	-11.8745	-24.3515	58.0319	-41.6926	-40.0649	101.129	-17.6726	-1.75382	100.53	-39.0037	-30.7507	83.9106	-74.1802	-38.4339	104.39	-53.029	7.19835	89.4228	-80.7211	11.7384	72.7283	-74.768	43.518	115.121	-67.8005	29.9036	90.4595	-85.8109	41.9899	80.9933	-66.6454	65.9031	119.102	-15.9584	61.0788	123.439	-6.38824	90.3571	88.5884	4.61001	74.8309	
218	1.81667	53.0939	-11.229	87.6123	28.9705	-34.3154	70.2451	13.1503	-58.7011	47.0067	15.7214	-79.8365	30.8338	72.2915	-12.0393	5.80458	66.4533	-25.9464	-24.5218	58.5044	-57.524	-37.0025	100.569	-28.0814	-1.29343	99.4272	-55.844	-28.789	79.8997	-89.5722	-30.5384	103.293	-65.0339	11.05	88.4176	-90.3836	16.3599	72.7892	-80.6904	49.4581	111.875	-74.5239	33.8638	89.0712	-94.0157	49.1921	81.2454	-66.0008	71.3959	122.623	-19.5502	60.5012	125.37	-7.92428	90.4922	95.4907	1.29622	71.1324	
219	1.825	57.9824	-9.41396	88.641	27.4946	-28.0458	73.9764	10.7997	-52.6961	51.8731	11.4917	-76.2775	38.006	76.622	-20.9588	6.85748	67.8175	-36.8926	-23.1674	53.7925	-62.9213	-31.6406	101.422	-39.4009	-1.50496	94.0674	-65.9481	-24.0946	70.3608	-95.9278	-22.4968	100.222	-75.2027	15.615	77.7668	-94.1907	23.2607	66.0606	-79.8807	55.726	103.691	-84.7812	37.6911	79.7652	-94.4487	53.9651	77.9421	-69.8972	76.3943	123.946	-30.0961	59.3866	128.082	-15.5952	89.2844	97.4106	-1.4654	72.8062	
